<?xml version="1.0" encoding="UTF-8"?><svg id="_レイヤー_2" xmlns="http://www.w3.org/2000/svg" xmlns:xlink="http://www.w3.org/1999/xlink" viewBox="0 0 731.55 60"><defs><style>.cls-1{fill:#e58b4e;}.cls-2,.cls-3{fill:#3a2522;}.cls-4{fill:url(#_名称未設定グラデーション_407);}.cls-4,.cls-5,.cls-3{opacity:.99;}.cls-5{fill:url(#_名称未設定グラデーション_407-2);}</style><linearGradient id="_名称未設定グラデーション_407" x1="104.19" y1="23.44" x2="104.19" y2="36.75" gradientUnits="userSpaceOnUse"><stop offset="0" stop-color="#36bedd"/><stop offset="1" stop-color="#6ed4be"/></linearGradient><linearGradient id="_名称未設定グラデーション_407-2" x1="316.25" y1="0" x2="316.25" y2="54.26" xlink:href="#_名称未設定グラデーション_407"/></defs><g id="_レイヤー_1-2"><path class="cls-3" d="m134.19,30c0,16.57-13.43,30-30,30s-30-13.43-30-30S87.63,0,104.19,0s30,13.43,30,30Zm-6.66,0c0-12.87-10.47-23.34-23.34-23.34s-23.34,10.47-23.34,23.34,10.47,23.34,23.34,23.34,23.34-10.47,23.34-23.34Z"/><path class="cls-3" d="m27.35,2.02v2.25c0,1.12-.91,2.02-2.02,2.02H8.68c-1.12,0-2.02.91-2.02,2.02v13.67c0,1.12.91,2.02,2.02,2.02h15.92c1.12,0,2.02.91,2.02,2.02v2.25c0,1.12-.91,2.02-2.02,2.02h-15.92c-1.12,0-2.02.91-2.02,2.02v25.64c0,1.12-.91,2.02-2.02,2.02h-2.61c-1.12,0-2.02-.91-2.02-2.02V2.02C0,.91.91,0,2.02,0h23.3C26.44,0,27.35.91,27.35,2.02Z"/><path class="cls-3" d="m70.64,58.4c.48.67,0,1.6-.82,1.6h-5.08c-.66,0-1.28-.32-1.66-.87l-17.66-25.4h-1.71v24.24c0,1.12-.91,2.02-2.02,2.02h-2.61c-1.12,0-2.02-.91-2.02-2.02V2.02C37.06.91,37.96,0,39.08,0h7.6C50.73,0,56.76.27,61.25,3.33c3.51,2.34,6.57,6.93,6.57,13.31,0,9.18-6.03,15.92-15.11,16.55l17.93,25.21Zm-22.7-30.6c8.28,0,13.22-3.96,13.22-10.97,0-3.33-.99-6.66-4.77-8.82-2.7-1.53-5.76-1.71-8.64-1.71h-4.05v21.5h4.23Z"/><path class="cls-3" d="m174.31,53.7h-29.82L175.35,3.08c.82-1.35-.15-3.08-1.73-3.08h-34.04c-1.12,0-2.02.91-2.02,2.02v2.25c0,1.12.91,2.02,2.02,2.02h26.49l-30.87,50.62c-.82,1.35.15,3.08,1.73,3.08h37.37c1.12,0,2.02-.91,2.02-2.02v-2.25c0-1.12-.91-2.02-2.02-2.02Z"/><path class="cls-3" d="m215.48,0h-27.08c-1.12,0-2.02.91-2.02,2.02v55.95c0,1.12.91,2.02,2.02,2.02h27.08c1.12,0,2.02-.91,2.02-2.02v-2.25c0-1.12-.91-2.02-2.02-2.02h-21.43c-.56,0-1.01-.45-1.01-1.01v-21.27c0-.56.45-1.01,1.01-1.01h20.71c1.12,0,2.02-.91,2.02-2.02v-2.25c0-1.12-.91-2.02-2.02-2.02h-20.71c-.56,0-1.01-.45-1.01-1.01V7.31c0-.56.45-1.01,1.01-1.01h21.43c1.12,0,2.02-.91,2.02-2.02v-2.25c0-1.12-.91-2.02-2.02-2.02Z"/><path class="cls-3" d="m279.91,0h-2.61c-1.12,0-2.02.91-2.02,2.02v44.48L231.99,1.14c-1.26-1.32-3.49-.43-3.49,1.4v55.44c0,1.12.91,2.02,2.02,2.02h2.61c1.12,0,2.02-.91,2.02-2.02V13.67l43.29,45.37c1.26,1.32,3.49.43,3.49-1.4V2.02c0-1.12-.91-2.02-2.02-2.02Z"/><path class="cls-3" d="m347,55V5C347,2.24,349.24,0,352,0h18.21c4.32,0,9.45.63,13.13,4.68,2.07,2.25,3.69,5.94,3.69,11.24,0,2.61-.45,4.86-1.71,7.38-1.26,2.34-2.61,3.69-4.86,4.68,3.15.36,6.3,1.8,8.19,3.6,2.43,2.34,4.05,6.21,4.05,10.97,0,5.67-2.16,9.54-4.41,11.78-3.24,3.33-8.91,5.67-16.28,5.67h-20.01c-2.76,0-5-2.24-5-5Zm15.56-31.34h2.88c1.62,0,4.32-.18,5.94-1.89.99-.99,1.44-2.61,1.44-3.96,0-1.53-.54-3.06-1.44-4.05-.99-.99-2.88-1.8-5.94-1.8h-2.88v11.69Zm0,24.2h3.51c4.32,0,7.92-.45,9.62-2.43.72-.81,1.26-2.16,1.26-3.87,0-1.89-.63-3.42-1.53-4.32-1.89-1.89-5.76-1.98-9.63-1.98h-3.24v12.59Z"/><path class="cls-3" d="m423.88,0c4.5,0,10.25.72,14.66,5.31,3.42,3.51,5.13,8.73,5.13,13.49,0,5.13-1.8,9.63-4.77,12.5-2.34,2.25-5.49,3.6-8.28,4.14l16.34,21.34c1.01,1.32.07,3.22-1.59,3.22h-12.57c-1.69,0-3.27-.86-4.2-2.28l-13.45-20.75v18.03c0,2.76-2.24,5-5,5h-5.56c-2.76,0-5-2.24-5-5V5C399.6,2.24,401.83,0,404.6,0h19.29Zm-8.73,26.9h2.97c2.34,0,5.67-.63,7.56-2.43,1.17-1.17,1.98-3.15,1.98-5.04s-.72-3.78-2.07-5.04c-1.44-1.44-4.05-2.34-7.47-2.34h-2.97v14.84Z"/><path class="cls-3" d="m527.14,3.7l9.44,35.07,11.56-35.33C548.81,1.39,550.73,0,552.89,0h5.08c2.2,0,4.14,1.44,4.78,3.55l10.71,35.22,10.28-35.17C584.37,1.47,586.32,0,588.55,0h9.8c1.35,0,2.32,1.32,1.91,2.61l-17.22,53.91c-.66,2.07-2.59,3.48-4.76,3.48h-8.6c-2.19,0-4.12-1.42-4.77-3.5l-9.79-31.22-10.38,31.3c-.68,2.05-2.59,3.43-4.75,3.43h-8.5c-2.21,0-4.16-1.45-4.79-3.57l-16.07-53.86C510.25,1.29,511.21,0,512.55,0h9.77c2.26,0,4.24,1.52,4.83,3.7Z"/><path class="cls-3" d="m605.88,55V5C605.88,2.24,608.12,0,610.88,0h8.13c1.54,0,2.99.71,3.94,1.92l27.19,34.78V5C650.14,2.24,652.38,0,655.14,0h5.56c2.76,0,5,2.24,5,5v50c0,2.76-2.24,5-5,5h-8.12c-1.54,0-2.99-.71-3.94-1.92l-27.19-34.78v31.7c0,2.76-2.24,5-5,5h-5.56c-2.76,0-5-2.24-5-5Z"/><rect class="cls-3" x="673.8" y="0" width="15.56" height="60" rx="5" ry="5"/><path class="cls-3" d="m726.55,13.22h-11.53c-1.1,0-2,.9-2,2v5.98c0,1.1.9,2,2,2h10.54c2.76,0,5,2.24,5,5v3.22c0,2.76-2.24,5-5,5h-10.54c-1.1,0-2,.9-2,2v6.34c0,1.1.9,2,2,2h11.53c2.76,0,5,2.24,5,5v3.22c0,2.76-2.24,5-5,5h-24.09c-2.76,0-5-2.24-5-5V5C697.46,2.24,699.69,0,702.46,0h24.09c2.76,0,5,2.24,5,5v3.22c0,2.76-2.24,5-5,5Z"/><path class="cls-2" d="m479.15,0C461.95,0,448.12,14.48,449.21,31.91c.93,14.94,13.09,27.1,28.03,28.03,17.44,1.08,31.91-12.74,31.91-29.94S495.72,0,479.15,0h0Z"/><path class="cls-1" d="m482.15,32.56v-15c0-1.66,1.34-3,3-3s3,1.34,3,3v4.2c0,1.66,1.34,3,3,3s3-1.34,3-3V4.02c-4.41-2.55-9.53-4.02-15-4.02s-10.59,1.47-15,4.02v20.14c0,1.66,1.34,3,3,3s3-1.34,3-3v-8.55c0-1.66,1.34-3,3-3s3,1.34,3,3v16.95c0,1.66,1.34,3,3,3s3-1.34,3-3Z"/><circle class="cls-1" cx="491.15" cy="38.56" r="3"/><circle class="cls-4" cx="104.19" cy="30.09" r="6.66"/><rect class="cls-1" x="321.02" y="52.34" width="7.04" height="7.04" rx="2" ry="2" transform="translate(147.49 -221.81) rotate(47.71)"/><rect class="cls-1" x="292.41" y="27.26" width="16.56" height="16.56" rx="4" ry="4" transform="translate(50.79 206.5) rotate(-41.12)"/><rect class="cls-1" x="330.53" y="22.59" width="7.04" height="7.04" rx="2" ry="2" transform="translate(263.2 -301.38) rotate(73.32)"/><path class="cls-5" d="m329.53,12.76l-9.95-11.39c-1.45-1.66-3.98-1.84-5.64-.38l-11.39,9.95c-1.66,1.45-1.84,3.98-.38,5.64l9.95,11.39c1.45,1.66,3.98,1.84,5.64.38l11.39-9.95c1.66-1.45,1.84-3.98.38-5.64Zm-.51,20.81l-3.98-1.87c-2-.94-4.38-.08-5.32,1.92l-1.87,3.98c-.94,2-.08,4.38,1.92,5.32l3.98,1.87c2,.94,4.38.08,5.32-1.92l1.87-3.98c.94-2,.08-4.38-1.92-5.32Zm-17.61,10.42l-3.06,1.53c-1.48.74-2.09,2.54-1.35,4.02l1.53,3.06c.74,1.48,2.54,2.09,4.02,1.35l3.06-1.53c1.48-.74,2.09-2.54,1.35-4.02l-1.53-3.06c-.74-1.48-2.54-2.09-4.02-1.35Z"/></g></svg>